<?xml version="1.0" encoding="UTF-8" standalone="no"?>
<!DOCTYPE svg PUBLIC "-//W3C//DTD SVG 1.1//EN"
 "http://www.w3.org/Graphics/SVG/1.1/DTD/svg11.dtd">
<!-- Generated by graphviz version 2.43.0 (0)
 -->
<!-- Title: App Pages: 1 -->
<svg width="1060pt" height="585pt"
 viewBox="0.00 0.00 1059.93 584.60" xmlns="http://www.w3.org/2000/svg" xmlns:xlink="http://www.w3.org/1999/xlink">
<g id="graph0" class="graph" transform="scale(1 1) rotate(0) translate(28.8 555.8)">
<title>App</title>
<polygon fill="white" stroke="transparent" points="-28.8,28.8 -28.8,-555.8 1031.13,-555.8 1031.13,28.8 -28.8,28.8"/>
<text text-anchor="middle" x="501.16" y="-512.6" font-family="Arial Bold" font-size="13.00">APP ERD</text>
<!-- m_ActiveStorage::Attachment -->
<g id="node1" class="node">
<title>m_ActiveStorage::Attachment</title>
<path fill="none" stroke="black" d="M38.33,-0.5C38.33,-0.5 167.33,-0.5 167.33,-0.5 173.33,-0.5 179.33,-6.5 179.33,-12.5 179.33,-12.5 179.33,-83.5 179.33,-83.5 179.33,-89.5 173.33,-95.5 167.33,-95.5 167.33,-95.5 38.33,-95.5 38.33,-95.5 32.33,-95.5 26.33,-89.5 26.33,-83.5 26.33,-83.5 26.33,-12.5 26.33,-12.5 26.33,-6.5 32.33,-0.5 38.33,-0.5"/>
<text text-anchor="start" x="31.83" y="-82.7" font-family="Arial Bold" font-size="11.00">ActiveStorage::Attachment</text>
<polyline fill="none" stroke="black" points="26.33,-75.5 179.33,-75.5 "/>
<text text-anchor="start" x="37.83" y="-62" font-family="Arial" font-size="10.00">blob_id </text>
<text text-anchor="start" x="71.83" y="-62" font-family="Arial Italic" font-size="10.00" fill="#999999">integer (8) ∗ FK</text>
<text text-anchor="start" x="37.83" y="-49" font-family="Arial" font-size="10.00">created_at </text>
<text text-anchor="start" x="86.83" y="-49" font-family="Arial Italic" font-size="10.00" fill="#999999">datetime (6,0) ∗</text>
<text text-anchor="start" x="37.83" y="-36" font-family="Arial" font-size="10.00">name </text>
<text text-anchor="start" x="65.83" y="-36" font-family="Arial Italic" font-size="10.00" fill="#999999">string ∗</text>
<text text-anchor="start" x="37.83" y="-23" font-family="Arial" font-size="10.00">record_id </text>
<text text-anchor="start" x="80.83" y="-23" font-family="Arial Italic" font-size="10.00" fill="#999999">integer (8) ∗ FK</text>
<text text-anchor="start" x="37.83" y="-10" font-family="Arial" font-size="10.00">record_type </text>
<text text-anchor="start" x="92.83" y="-10" font-family="Arial Italic" font-size="10.00" fill="#999999">string ∗</text>
</g>
<!-- m_ActiveStorage::Blob -->
<g id="node2" class="node">
<title>m_ActiveStorage::Blob</title>
<path fill="none" stroke="black" d="M42.83,-132.5C42.83,-132.5 162.83,-132.5 162.83,-132.5 168.83,-132.5 174.83,-138.5 174.83,-144.5 174.83,-144.5 174.83,-254.5 174.83,-254.5 174.83,-260.5 168.83,-266.5 162.83,-266.5 162.83,-266.5 42.83,-266.5 42.83,-266.5 36.83,-266.5 30.83,-260.5 30.83,-254.5 30.83,-254.5 30.83,-144.5 30.83,-144.5 30.83,-138.5 36.83,-132.5 42.83,-132.5"/>
<text text-anchor="start" x="47.33" y="-253.7" font-family="Arial Bold" font-size="11.00">ActiveStorage::Blob</text>
<polyline fill="none" stroke="black" points="30.83,-246.5 174.83,-246.5 "/>
<text text-anchor="start" x="37.83" y="-233.5" font-family="Arial" font-size="10.00">byte_size </text>
<text text-anchor="start" x="83.83" y="-233.5" font-family="Arial Italic" font-size="10.00" fill="#999999">integer (8) ∗</text>
<text text-anchor="start" x="37.83" y="-220.5" font-family="Arial" font-size="10.00">checksum </text>
<text text-anchor="start" x="86.83" y="-220.5" font-family="Arial Italic" font-size="10.00" fill="#999999">string ∗</text>
<text text-anchor="start" x="37.83" y="-207.5" font-family="Arial" font-size="10.00">content_type </text>
<text text-anchor="start" x="97.83" y="-207.5" font-family="Arial Italic" font-size="10.00" fill="#999999">string</text>
<text text-anchor="start" x="37.83" y="-194.5" font-family="Arial" font-size="10.00">created_at </text>
<text text-anchor="start" x="86.83" y="-194.5" font-family="Arial Italic" font-size="10.00" fill="#999999">datetime (6,0) ∗</text>
<text text-anchor="start" x="37.83" y="-181.5" font-family="Arial" font-size="10.00">filename </text>
<text text-anchor="start" x="77.83" y="-181.5" font-family="Arial Italic" font-size="10.00" fill="#999999">string ∗</text>
<text text-anchor="start" x="37.83" y="-168.5" font-family="Arial" font-size="10.00">key </text>
<text text-anchor="start" x="56.83" y="-168.5" font-family="Arial Italic" font-size="10.00" fill="#999999">string ∗</text>
<text text-anchor="start" x="37.83" y="-155.5" font-family="Arial" font-size="10.00">metadata </text>
<text text-anchor="start" x="81.83" y="-155.5" font-family="Arial Italic" font-size="10.00" fill="#999999">text (65535)</text>
<text text-anchor="start" x="37.83" y="-142.5" font-family="Arial" font-size="10.00">service_name </text>
<text text-anchor="start" x="101.83" y="-142.5" font-family="Arial Italic" font-size="10.00" fill="#999999">string ∗</text>
</g>
<!-- m_ActiveStorage::Blob&#45;&gt;m_ActiveStorage::Attachment -->
<g id="edge1" class="edge">
<title>m_ActiveStorage::Blob&#45;&gt;m_ActiveStorage::Attachment</title>
<path fill="none" stroke="black" d="M102.83,-127.55C102.83,-118.63 102.83,-109.64 102.83,-101.09"/>
<ellipse fill="none" stroke="black" cx="102.83" cy="-130.09" rx="2.4" ry="2.4"/>
<ellipse fill="black" stroke="black" cx="102.83" cy="-98.22" rx="2.4" ry="2.4"/>
</g>
<!-- m_ActiveStorage::VariantRecord -->
<g id="node3" class="node">
<title>m_ActiveStorage::VariantRecord</title>
<path fill="none" stroke="black" d="M31.33,-368.5C31.33,-368.5 174.33,-368.5 174.33,-368.5 180.33,-368.5 186.33,-374.5 186.33,-380.5 186.33,-380.5 186.33,-412.5 186.33,-412.5 186.33,-418.5 180.33,-424.5 174.33,-424.5 174.33,-424.5 31.33,-424.5 31.33,-424.5 25.33,-424.5 19.33,-418.5 19.33,-412.5 19.33,-412.5 19.33,-380.5 19.33,-380.5 19.33,-374.5 25.33,-368.5 31.33,-368.5"/>
<text text-anchor="start" x="24.83" y="-411.7" font-family="Arial Bold" font-size="11.00">ActiveStorage::VariantRecord</text>
<polyline fill="none" stroke="black" points="19.33,-404.5 186.33,-404.5 "/>
<text text-anchor="start" x="37.83" y="-391.5" font-family="Arial" font-size="10.00">blob_id </text>
<text text-anchor="start" x="71.83" y="-391.5" font-family="Arial Italic" font-size="10.00" fill="#999999">integer (8) ∗ FK</text>
<text text-anchor="start" x="37.83" y="-378.5" font-family="Arial" font-size="10.00">variation_digest </text>
<text text-anchor="start" x="109.83" y="-378.5" font-family="Arial Italic" font-size="10.00" fill="#999999">string ∗</text>
</g>
<!-- m_ActiveStorage::VariantRecord&#45;&gt;m_ActiveStorage::Attachment -->
<g id="edge2" class="edge">
<title>m_ActiveStorage::VariantRecord&#45;&gt;m_ActiveStorage::Attachment</title>
<path fill="none" stroke="black" d="M74.09,-364.68C53.41,-340.25 27.22,-304.16 15.83,-267 -1.76,-209.64 -7.78,-187.16 15.83,-132 20.95,-120.04 28.74,-108.98 37.59,-99.09"/>
<ellipse fill="none" stroke="black" cx="75.8" cy="-366.67" rx="2.4" ry="2.4"/>
<ellipse fill="black" stroke="black" cx="39.27" cy="-97.27" rx="2.4" ry="2.4"/>
</g>
<!-- m_ActiveStorage::VariantRecord&#45;&gt;m_ActiveStorage::Blob -->
<g id="edge5" class="edge">
<title>m_ActiveStorage::VariantRecord&#45;&gt;m_ActiveStorage::Blob</title>
<path fill="none" stroke="black" d="M102.83,-363.32C102.83,-340.03 102.83,-307.53 102.83,-277.69"/>
<ellipse fill="none" stroke="black" cx="102.83" cy="-365.99" rx="2.4" ry="2.4"/>
<ellipse fill="black" stroke="black" cx="102.83" cy="-269.24" rx="2.4" ry="2.4"/>
<polygon fill="black" stroke="black" points="104.93,-277.64 102.83,-271.64 100.73,-277.64 104.93,-277.64"/>
</g>
<!-- m_Admin -->
<g id="node4" class="node">
<title>m_Admin</title>
<path fill="none" stroke="black" d="M441.33,-336C441.33,-336 602.33,-336 602.33,-336 608.33,-336 614.33,-342 614.33,-348 614.33,-348 614.33,-445 614.33,-445 614.33,-451 608.33,-457 602.33,-457 602.33,-457 441.33,-457 441.33,-457 435.33,-457 429.33,-451 429.33,-445 429.33,-445 429.33,-348 429.33,-348 429.33,-342 435.33,-336 441.33,-336"/>
<text text-anchor="start" x="502.33" y="-444.2" font-family="Arial Bold" font-size="11.00">Admin</text>
<polyline fill="none" stroke="black" points="429.33,-437 614.33,-437 "/>
<text text-anchor="start" x="436.83" y="-423.5" font-family="Arial" font-size="10.00">created_at </text>
<text text-anchor="start" x="485.83" y="-423.5" font-family="Arial Italic" font-size="10.00" fill="#999999">datetime (6,0) ∗</text>
<text text-anchor="start" x="436.83" y="-410.5" font-family="Arial" font-size="10.00">email </text>
<text text-anchor="start" x="463.83" y="-410.5" font-family="Arial Italic" font-size="10.00" fill="#999999">string ∗ U</text>
<text text-anchor="start" x="436.83" y="-397.5" font-family="Arial" font-size="10.00">encrypted_password </text>
<text text-anchor="start" x="530.83" y="-397.5" font-family="Arial Italic" font-size="10.00" fill="#999999">string ∗</text>
<text text-anchor="start" x="436.83" y="-384.5" font-family="Arial" font-size="10.00">remember_created_at </text>
<text text-anchor="start" x="534.83" y="-384.5" font-family="Arial Italic" font-size="10.00" fill="#999999">datetime (6,0)</text>
<text text-anchor="start" x="436.83" y="-371.5" font-family="Arial" font-size="10.00">reset_password_sent_at </text>
<text text-anchor="start" x="546.83" y="-371.5" font-family="Arial Italic" font-size="10.00" fill="#999999">datetime (6,0)</text>
<text text-anchor="start" x="436.83" y="-358.5" font-family="Arial" font-size="10.00">reset_password_token </text>
<text text-anchor="start" x="538.83" y="-358.5" font-family="Arial Italic" font-size="10.00" fill="#999999">string</text>
<text text-anchor="start" x="436.83" y="-345.5" font-family="Arial" font-size="10.00">updated_at </text>
<text text-anchor="start" x="488.83" y="-345.5" font-family="Arial Italic" font-size="10.00" fill="#999999">datetime (6,0) ∗</text>
</g>
<!-- m_Book -->
<g id="node5" class="node">
<title>m_Book</title>
<path fill="none" stroke="black" d="M655.83,-329.5C655.83,-329.5 775.83,-329.5 775.83,-329.5 781.83,-329.5 787.83,-335.5 787.83,-341.5 787.83,-341.5 787.83,-451.5 787.83,-451.5 787.83,-457.5 781.83,-463.5 775.83,-463.5 775.83,-463.5 655.83,-463.5 655.83,-463.5 649.83,-463.5 643.83,-457.5 643.83,-451.5 643.83,-451.5 643.83,-341.5 643.83,-341.5 643.83,-335.5 649.83,-329.5 655.83,-329.5"/>
<text text-anchor="start" x="699.83" y="-450.7" font-family="Arial Bold" font-size="11.00">Book</text>
<polyline fill="none" stroke="black" points="643.83,-443.5 787.83,-443.5 "/>
<text text-anchor="start" x="650.83" y="-430.5" font-family="Arial" font-size="10.00">auther </text>
<text text-anchor="start" x="681.83" y="-430.5" font-family="Arial Italic" font-size="10.00" fill="#999999">string</text>
<text text-anchor="start" x="650.83" y="-417.5" font-family="Arial" font-size="10.00">created_at </text>
<text text-anchor="start" x="699.83" y="-417.5" font-family="Arial Italic" font-size="10.00" fill="#999999">datetime (6,0) ∗</text>
<text text-anchor="start" x="650.83" y="-404.5" font-family="Arial" font-size="10.00">page_size </text>
<text text-anchor="start" x="698.83" y="-404.5" font-family="Arial Italic" font-size="10.00" fill="#999999">integer ∗</text>
<text text-anchor="start" x="650.83" y="-391.5" font-family="Arial" font-size="10.00">published_on </text>
<text text-anchor="start" x="711.83" y="-391.5" font-family="Arial Italic" font-size="10.00" fill="#999999">date</text>
<text text-anchor="start" x="650.83" y="-378.5" font-family="Arial" font-size="10.00">publisher </text>
<text text-anchor="start" x="693.83" y="-378.5" font-family="Arial Italic" font-size="10.00" fill="#999999">string</text>
<text text-anchor="start" x="650.83" y="-365.5" font-family="Arial" font-size="10.00">series </text>
<text text-anchor="start" x="680.83" y="-365.5" font-family="Arial Italic" font-size="10.00" fill="#999999">string</text>
<text text-anchor="start" x="650.83" y="-352.5" font-family="Arial" font-size="10.00">title </text>
<text text-anchor="start" x="669.83" y="-352.5" font-family="Arial Italic" font-size="10.00" fill="#999999">string (30) ∗</text>
<text text-anchor="start" x="650.83" y="-339.5" font-family="Arial" font-size="10.00">updated_at </text>
<text text-anchor="start" x="702.83" y="-339.5" font-family="Arial Italic" font-size="10.00" fill="#999999">datetime (6,0) ∗</text>
</g>
<!-- m_BookCsv -->
<g id="node6" class="node">
<title>m_BookCsv</title>
<path fill="none" stroke="black" d="M247.83,-152C247.83,-152 367.83,-152 367.83,-152 373.83,-152 379.83,-158 379.83,-164 379.83,-164 379.83,-235 379.83,-235 379.83,-241 373.83,-247 367.83,-247 367.83,-247 247.83,-247 247.83,-247 241.83,-247 235.83,-241 235.83,-235 235.83,-235 235.83,-164 235.83,-164 235.83,-158 241.83,-152 247.83,-152"/>
<text text-anchor="start" x="281.33" y="-234.2" font-family="Arial Bold" font-size="11.00">BookCsv</text>
<polyline fill="none" stroke="black" points="235.83,-227 379.83,-227 "/>
<text text-anchor="start" x="242.83" y="-213.5" font-family="Arial" font-size="10.00">created_at </text>
<text text-anchor="start" x="291.83" y="-213.5" font-family="Arial Italic" font-size="10.00" fill="#999999">datetime (6,0) ∗</text>
<text text-anchor="start" x="242.83" y="-200.5" font-family="Arial" font-size="10.00">imported_at </text>
<text text-anchor="start" x="297.83" y="-200.5" font-family="Arial Italic" font-size="10.00" fill="#999999">datetime (6,0)</text>
<text text-anchor="start" x="242.83" y="-187.5" font-family="Arial" font-size="10.00">manager_id </text>
<text text-anchor="start" x="296.83" y="-187.5" font-family="Arial Italic" font-size="10.00" fill="#999999">integer (8) ∗ FK</text>
<text text-anchor="start" x="242.83" y="-174.5" font-family="Arial" font-size="10.00">status </text>
<text text-anchor="start" x="273.83" y="-174.5" font-family="Arial Italic" font-size="10.00" fill="#999999">string</text>
<text text-anchor="start" x="242.83" y="-161.5" font-family="Arial" font-size="10.00">updated_at </text>
<text text-anchor="start" x="294.83" y="-161.5" font-family="Arial Italic" font-size="10.00" fill="#999999">datetime (6,0) ∗</text>
</g>
<!-- m_BookCsv&#45;&gt;m_ActiveStorage::Attachment -->
<g id="edge3" class="edge">
<title>m_BookCsv&#45;&gt;m_ActiveStorage::Attachment</title>
<path fill="none" stroke="black" d="M239.75,-148.85C217.58,-132.69 192.98,-114.75 170.82,-98.59"/>
<ellipse fill="none" stroke="black" cx="241.87" cy="-150.4" rx="2.4" ry="2.4"/>
<ellipse fill="black" stroke="black" cx="168.65" cy="-97" rx="2.4" ry="2.4"/>
</g>
<!-- m_Manager -->
<g id="node7" class="node">
<title>m_Manager</title>
<path fill="none" stroke="black" d="M227.33,-303.5C227.33,-303.5 388.33,-303.5 388.33,-303.5 394.33,-303.5 400.33,-309.5 400.33,-315.5 400.33,-315.5 400.33,-477.5 400.33,-477.5 400.33,-483.5 394.33,-489.5 388.33,-489.5 388.33,-489.5 227.33,-489.5 227.33,-489.5 221.33,-489.5 215.33,-483.5 215.33,-477.5 215.33,-477.5 215.33,-315.5 215.33,-315.5 215.33,-309.5 221.33,-303.5 227.33,-303.5"/>
<text text-anchor="start" x="282.83" y="-476.7" font-family="Arial Bold" font-size="11.00">Manager</text>
<polyline fill="none" stroke="black" points="215.33,-469.5 400.33,-469.5 "/>
<text text-anchor="start" x="222.83" y="-456.5" font-family="Arial" font-size="10.00">confirmation_sent_at </text>
<text text-anchor="start" x="316.83" y="-456.5" font-family="Arial Italic" font-size="10.00" fill="#999999">datetime (6,0)</text>
<text text-anchor="start" x="222.83" y="-443.5" font-family="Arial" font-size="10.00">confirmation_token </text>
<text text-anchor="start" x="308.83" y="-443.5" font-family="Arial Italic" font-size="10.00" fill="#999999">string</text>
<text text-anchor="start" x="222.83" y="-430.5" font-family="Arial" font-size="10.00">confirmed_at </text>
<text text-anchor="start" x="282.83" y="-430.5" font-family="Arial Italic" font-size="10.00" fill="#999999">datetime (6,0)</text>
<text text-anchor="start" x="222.83" y="-417.5" font-family="Arial" font-size="10.00">created_at </text>
<text text-anchor="start" x="271.83" y="-417.5" font-family="Arial Italic" font-size="10.00" fill="#999999">datetime (6,0) ∗</text>
<text text-anchor="start" x="222.83" y="-404.5" font-family="Arial" font-size="10.00">email </text>
<text text-anchor="start" x="249.83" y="-404.5" font-family="Arial Italic" font-size="10.00" fill="#999999">string ∗ U</text>
<text text-anchor="start" x="222.83" y="-391.5" font-family="Arial" font-size="10.00">encrypted_password </text>
<text text-anchor="start" x="316.83" y="-391.5" font-family="Arial Italic" font-size="10.00" fill="#999999">string ∗</text>
<text text-anchor="start" x="222.83" y="-378.5" font-family="Arial" font-size="10.00">remember_created_at </text>
<text text-anchor="start" x="320.83" y="-378.5" font-family="Arial Italic" font-size="10.00" fill="#999999">datetime (6,0)</text>
<text text-anchor="start" x="222.83" y="-365.5" font-family="Arial" font-size="10.00">reset_password_sent_at </text>
<text text-anchor="start" x="332.83" y="-365.5" font-family="Arial Italic" font-size="10.00" fill="#999999">datetime (6,0)</text>
<text text-anchor="start" x="222.83" y="-352.5" font-family="Arial" font-size="10.00">reset_password_token </text>
<text text-anchor="start" x="324.83" y="-352.5" font-family="Arial Italic" font-size="10.00" fill="#999999">string</text>
<text text-anchor="start" x="222.83" y="-339.5" font-family="Arial" font-size="10.00">role </text>
<text text-anchor="start" x="241.83" y="-339.5" font-family="Arial Italic" font-size="10.00" fill="#999999">string ∗</text>
<text text-anchor="start" x="222.83" y="-326.5" font-family="Arial" font-size="10.00">unconfirmed_email </text>
<text text-anchor="start" x="307.83" y="-326.5" font-family="Arial Italic" font-size="10.00" fill="#999999">string</text>
<text text-anchor="start" x="222.83" y="-313.5" font-family="Arial" font-size="10.00">updated_at </text>
<text text-anchor="start" x="274.83" y="-313.5" font-family="Arial Italic" font-size="10.00" fill="#999999">datetime (6,0) ∗</text>
</g>
<!-- m_Manager&#45;&gt;m_BookCsv -->
<g id="edge6" class="edge">
<title>m_Manager&#45;&gt;m_BookCsv</title>
<path fill="none" stroke="black" d="M307.83,-298.39C307.83,-284.56 307.83,-270.73 307.83,-258"/>
<ellipse fill="none" stroke="black" cx="307.83" cy="-301.02" rx="2.4" ry="2.4"/>
<ellipse fill="black" stroke="black" cx="307.83" cy="-249.52" rx="2.4" ry="2.4"/>
<polygon fill="black" stroke="black" points="309.93,-257.92 307.83,-251.92 305.73,-257.92 309.93,-257.92"/>
</g>
<!-- m_User -->
<g id="node8" class="node">
<title>m_User</title>
<path fill="none" stroke="black" d="M829.33,-310C829.33,-310 990.33,-310 990.33,-310 996.33,-310 1002.33,-316 1002.33,-322 1002.33,-322 1002.33,-471 1002.33,-471 1002.33,-477 996.33,-483 990.33,-483 990.33,-483 829.33,-483 829.33,-483 823.33,-483 817.33,-477 817.33,-471 817.33,-471 817.33,-322 817.33,-322 817.33,-316 823.33,-310 829.33,-310"/>
<text text-anchor="start" x="895.33" y="-470.2" font-family="Arial Bold" font-size="11.00">User</text>
<polyline fill="none" stroke="black" points="817.33,-463 1002.33,-463 "/>
<text text-anchor="start" x="824.83" y="-449.5" font-family="Arial" font-size="10.00">confirmation_sent_at </text>
<text text-anchor="start" x="918.83" y="-449.5" font-family="Arial Italic" font-size="10.00" fill="#999999">datetime (6,0)</text>
<text text-anchor="start" x="824.83" y="-436.5" font-family="Arial" font-size="10.00">confirmation_token </text>
<text text-anchor="start" x="910.83" y="-436.5" font-family="Arial Italic" font-size="10.00" fill="#999999">string</text>
<text text-anchor="start" x="824.83" y="-423.5" font-family="Arial" font-size="10.00">confirmed_at </text>
<text text-anchor="start" x="884.83" y="-423.5" font-family="Arial Italic" font-size="10.00" fill="#999999">datetime (6,0)</text>
<text text-anchor="start" x="824.83" y="-410.5" font-family="Arial" font-size="10.00">created_at </text>
<text text-anchor="start" x="873.83" y="-410.5" font-family="Arial Italic" font-size="10.00" fill="#999999">datetime (6,0) ∗</text>
<text text-anchor="start" x="824.83" y="-397.5" font-family="Arial" font-size="10.00">email </text>
<text text-anchor="start" x="851.83" y="-397.5" font-family="Arial Italic" font-size="10.00" fill="#999999">string ∗ U</text>
<text text-anchor="start" x="824.83" y="-384.5" font-family="Arial" font-size="10.00">encrypted_password </text>
<text text-anchor="start" x="918.83" y="-384.5" font-family="Arial Italic" font-size="10.00" fill="#999999">string ∗</text>
<text text-anchor="start" x="824.83" y="-371.5" font-family="Arial" font-size="10.00">remember_created_at </text>
<text text-anchor="start" x="922.83" y="-371.5" font-family="Arial Italic" font-size="10.00" fill="#999999">datetime (6,0)</text>
<text text-anchor="start" x="824.83" y="-358.5" font-family="Arial" font-size="10.00">reset_password_sent_at </text>
<text text-anchor="start" x="934.83" y="-358.5" font-family="Arial Italic" font-size="10.00" fill="#999999">datetime (6,0)</text>
<text text-anchor="start" x="824.83" y="-345.5" font-family="Arial" font-size="10.00">reset_password_token </text>
<text text-anchor="start" x="926.83" y="-345.5" font-family="Arial Italic" font-size="10.00" fill="#999999">string</text>
<text text-anchor="start" x="824.83" y="-332.5" font-family="Arial" font-size="10.00">unconfirmed_email </text>
<text text-anchor="start" x="909.83" y="-332.5" font-family="Arial Italic" font-size="10.00" fill="#999999">string</text>
<text text-anchor="start" x="824.83" y="-319.5" font-family="Arial" font-size="10.00">updated_at </text>
<text text-anchor="start" x="876.83" y="-319.5" font-family="Arial Italic" font-size="10.00" fill="#999999">datetime (6,0) ∗</text>
</g>
</g>
</svg>
